# xmcd
#
# Track frame offsets: 
#        150
#        12200
#        32656
#        49648
#        64943
#        80942
#        97320
#        111932
#        129506
#        141833
#        157559
#        173258
#        189528
#
# Disc length: 2683 seconds
#
# Revision: 0
# Processed by: cddbd v1.5.2PL0 Copyright (c) Steve Scherf et al.
# Submitted via: ExactAudioCopy v0.95b4
#
DISCID=a70a790d
DTITLE=Theresa Ruppert - Dance of Life
DYEAR=2003
DGENRE=Country
TTITLE0=I Betcha
TTITLE1=Devil in my Mind
TTITLE2=Gladys Defoe
TTITLE3=Little Girl's Prayer
TTITLE4=Dance of Life
TTITLE5=I Want to But I Don't
TTITLE6=Drop By Sometime
TTITLE7=A New Life
TTITLE8=I'm Gonna Runaway
TTITLE9=Living on the Brink
TTITLE10=Baby Love Me
TTITLE11=Yesterday
TTITLE12=Raining Down on Me
EXTD=
EXTT0=
EXTT1=
EXTT2=
EXTT3=
EXTT4=
EXTT5=
EXTT6=
EXTT7=
EXTT8=
EXTT9=
EXTT10=
EXTT11=
EXTT12=
PLAYORDER=
